<?xml version="1.0" standalone="no"?><svg xmlns:xlink="http://www.w3.org/1999/xlink" xmlns="http://www.w3.org/2000/svg" viewBox="0 0 3000 1687.5099499407424" preserveAspectRatio="xMaxYMax slice"><g transform="scale(2.653317531353369)"><rect x="0" y="0" width="1130.6666666666667" height="636" fill="#38107c"/><rect x="0" y="0" width="70.67" height="70.67" fill="#340f77"/><rect x="0" y="0" width="70.67" height="70.67" fill="#37107b"/><rect x="70.67" y="0" width="70.67" height="70.67" fill="#36107a"/><rect x="70.67" y="0" width="70.67" height="70.67" fill="#3a1281"/><rect x="141.33333333333334" y="0" width="70.66666666666667" height="70.66666666666667" fill="#38107c"/><rect x="141.33" y="0" width="35.33" height="35.33" fill="#350f79"/><polygon points="176.66000000000003,0 176.66000000000003,35.33 141.33,35.33" fill="#3a1281"/><rect x="176.67" y="0" width="35.33" height="35.33" fill="#340f78"/><polygon points="176.67,0 212,35.33 176.67,35.33" fill="#37107b"/><rect x="141.33" y="35.33" width="35.33" height="35.33" fill="#37107b"/><polygon points="141.33,35.33 176.66000000000003,35.33 141.33,70.66" fill="#350f79"/><rect x="176.67" y="35.33" width="35.33" height="35.33" fill="#3b1382"/><polygon points="176.67,35.33 212,35.33 212,70.66" fill="#3a1280"/><rect x="212" y="0" width="70.67" height="70.67" fill="#3a1280"/><rect x="212" y="0" width="70.67" height="70.67" fill="#38107c"/><rect x="282.6666666666667" y="0" width="70.66666666666667" height="70.66666666666667" fill="#38107c"/><rect x="282.67" y="0" width="35.33" height="35.33" fill="#38107c"/><path d="M 282.67 0 A 35.33 35.33 0 0 1 318 35.33 L 282.67 35.33L282.67 0" fill="#3a127f"/><rect x="318" y="0" width="35.33" height="35.33" fill="#3a1280"/><path d="M 318 35.33 A 35.33 35.33 0 0 1  353.33 0 L 353.33 35.33L318 35.33" fill="#3a1280"/><rect x="282.67" y="35.33" width="35.33" height="35.33" fill="#39117d"/><path d="M 282.67 70.66 A 35.33 35.33 0 0 0 318 35.33 L 282.67 35.33L282.67 70.66" fill="#3a1281"/><rect x="318" y="35.33" width="35.33" height="35.33" fill="#330f76"/><path d="M 318 35.33 A 35.33 35.33 0 0 0 353.33 70.66 L 353.33 35.33L318 35.33" fill="#3b1383"/><rect x="353.33" y="0" width="70.67" height="70.67" fill="#39117e"/><rect x="353.33" y="0" width="70.67" height="70.67" fill="#350f79"/><rect x="424" y="0" width="70.66666666666667" height="70.66666666666667" fill="#38107c"/><rect x="424" y="0" width="35.33" height="35.33" fill="#39117e"/><path d="M 424 0 A 35.33 35.33 0 0 0 459.33 35.33 L 459.33 0L424 0" fill="#38107b"/><rect x="459.33" y="0" width="35.33" height="35.33" fill="#39117e"/><path d="M 459.33 35.33 A 35.33 35.33 0 0 0 494.65999999999997 0 L 459.33 0L459.33 35.33" fill="#37107b"/><rect x="424" y="35.33" width="35.33" height="35.33" fill="#3a1280"/><path d="M 424 70.66 A 35.33 35.33 0 0 1  459.33 35.33 L 459.33 70.66L424 70.66" fill="#38107c"/><rect x="459.33" y="35.33" width="35.33" height="35.33" fill="#3a1282"/><path d="M 459.33 35.33 A 35.33 35.33 0 0 1 494.65999999999997 70.66 L 459.33 70.66L459.33 35.33" fill="#3a1281"/><rect x="494.6666666666667" y="0" width="70.66666666666667" height="70.66666666666667" fill="#38107c"/><rect x="494.67" y="0" width="35.33" height="35.33" fill="#340f78"/><polygon points="530,0 530,35.33 494.67,35.33" fill="#3a1280"/><rect x="530" y="0" width="35.33" height="35.33" fill="#38107c"/><polygon points="530,0 565.33,0 530,35.33" fill="#3b1382"/><rect x="494.67" y="35.33" width="35.33" height="35.33" fill="#36107a"/><polygon points="494.67,35.33 530,35.33 530,70.66" fill="#39117f"/><rect x="530" y="35.33" width="35.33" height="35.33" fill="#38107c"/><polygon points="530,35.33 565.33,70.66 530,70.66" fill="#3a1281"/><rect x="565.3333333333334" y="0" width="70.66666666666667" height="70.66666666666667" fill="#38107c"/><rect x="565.33" y="0" width="35.33" height="35.33" fill="#350f78"/><path d="M 565.33 35.33 A 35.33 35.33 0 0 0 600.6600000000001 0 L 565.33 0L565.33 35.33" fill="#39117f"/><rect x="600.67" y="0" width="35.33" height="35.33" fill="#3c1485"/><path d="M 600.67 0 A 35.33 35.33 0 0 0 636 35.33 L 636 0L600.67 0" fill="#3b1383"/><rect x="565.33" y="35.33" width="35.33" height="35.33" fill="#350f78"/><path d="M 565.33 35.33 A 35.33 35.33 0 0 1 600.6600000000001 70.66 L 565.33 70.66L565.33 35.33" fill="#350f78"/><rect x="600.67" y="35.33" width="35.33" height="35.33" fill="#39117f"/><path d="M 600.67 70.66 A 35.33 35.33 0 0 1  636 35.33 L 636 70.66L600.67 70.66" fill="#3a1281"/><rect x="636" y="0" width="70.67" height="70.67" fill="#38107d"/><path d="M 636 70.67 A 70.67 70.67 0 0 1  706.67 0 L 706.67 70.67L636 70.67" fill="#340f77"/><rect x="706.6666666666667" y="0" width="70.66666666666667" height="70.66666666666667" fill="#38107c"/><rect x="706.67" y="0" width="35.33" height="35.33" fill="#3b1384"/><path d="M 706.67 35.33 A 35.33 35.33 0 0 0 742 0 L 706.67 0L706.67 35.33" fill="#361079"/><rect x="742" y="0" width="35.33" height="35.33" fill="#3c1484"/><path d="M 742 0 A 35.33 35.33 0 0 0 777.33 35.33 L 777.33 0L742 0" fill="#38107c"/><rect x="706.67" y="35.33" width="35.33" height="35.33" fill="#36107a"/><path d="M 706.67 35.33 A 35.33 35.33 0 0 1 742 70.66 L 706.67 70.66L706.67 35.33" fill="#3a1281"/><rect x="742" y="35.33" width="35.33" height="35.33" fill="#330f76"/><path d="M 742 70.66 A 35.33 35.33 0 0 1  777.33 35.33 L 777.33 70.66L742 70.66" fill="#3c1484"/><rect x="777.3333333333334" y="0" width="70.66666666666667" height="70.66666666666667" fill="#38107c"/><rect x="777.33" y="0" width="35.33" height="35.33" fill="#340f77"/><polygon points="812.6600000000001,0 812.6600000000001,35.33 777.33,35.33" fill="#3b1383"/><rect x="812.67" y="0" width="35.33" height="35.33" fill="#340f77"/><polygon points="812.67,0 848,35.33 812.67,35.33" fill="#39117d"/><rect x="777.33" y="35.33" width="35.33" height="35.33" fill="#36107a"/><polygon points="777.33,35.33 812.6600000000001,35.33 777.33,70.66" fill="#38107c"/><rect x="812.67" y="35.33" width="35.33" height="35.33" fill="#39117f"/><polygon points="812.67,35.33 848,35.33 848,70.66" fill="#3b1382"/><rect x="848" y="0" width="70.66666666666667" height="70.66666666666667" fill="#38107c"/><rect x="848" y="0" width="35.33" height="35.33" fill="#350f79"/><path d="M 848 35.33 A 35.33 35.33 0 0 1  883.33 0 L 883.33 35.33L848 35.33" fill="#340f78"/><rect x="883.33" y="0" width="35.33" height="35.33" fill="#3a1280"/><path d="M 883.33 0 A 35.33 35.33 0 0 1 918.6600000000001 35.33 L 883.33 35.33L883.33 0" fill="#3b1382"/><rect x="848" y="35.33" width="35.33" height="35.33" fill="#3b1382"/><path d="M 848 35.33 A 35.33 35.33 0 0 0 883.33 70.66 L 883.33 35.33L848 35.33" fill="#37107b"/><rect x="883.33" y="35.33" width="35.33" height="35.33" fill="#3c1484"/><path d="M 883.33 70.66 A 35.33 35.33 0 0 0 918.6600000000001 35.33 L 883.33 35.33L883.33 70.66" fill="#38107c"/><rect x="918.6666666666667" y="0" width="70.66666666666667" height="70.66666666666667" fill="#38107c"/><rect x="918.67" y="0" width="35.33" height="35.33" fill="#38107d"/><circle cx="936.3349999999999" cy="17.665" r="17.665" fill="#340f77"/><rect x="954" y="0" width="35.33" height="35.33" fill="#39117f"/><rect x="954" y="0" width="35.33" height="35.33" fill="#3b1382"/><rect x="918.67" y="35.33" width="35.33" height="35.33" fill="#3b1382"/><circle cx="936.3349999999999" cy="52.995" r="17.665" fill="#330f76"/><rect x="954" y="35.33" width="35.33" height="35.33" fill="#350f79"/><rect x="954" y="35.33" width="35.33" height="35.33" fill="#3b1383"/><rect x="989.3333333333334" y="0" width="70.66666666666667" height="70.66666666666667" fill="#38107c"/><rect x="989.33" y="0" width="35.33" height="35.33" fill="#38107d"/><path d="M 989.33 35.33 A 35.33 35.33 0 0 0 1024.66 0 L 989.33 0L989.33 35.33" fill="#361079"/><rect x="1024.67" y="0" width="35.33" height="35.33" fill="#38107d"/><path d="M 1024.67 0 A 35.33 35.33 0 0 0 1060 35.33 L 1060 0L1024.67 0" fill="#38107c"/><rect x="989.33" y="35.33" width="35.33" height="35.33" fill="#3b1383"/><path d="M 989.33 35.33 A 35.33 35.33 0 0 1 1024.66 70.66 L 989.33 70.66L989.33 35.33" fill="#340f78"/><rect x="1024.67" y="35.33" width="35.33" height="35.33" fill="#36107a"/><path d="M 1024.67 70.66 A 35.33 35.33 0 0 1  1060 35.33 L 1060 70.66L1024.67 70.66" fill="#330f76"/><rect x="1060" y="0" width="70.66666666666667" height="70.66666666666667" fill="#38107c"/><rect x="1060" y="0" width="35.33" height="35.33" fill="#38107d"/><path d="M 1060 0 A 35.33 35.33 0 0 1 1095.33 35.33 L 1060 35.33L1060 0" fill="#37107a"/><rect x="1095.33" y="0" width="35.33" height="35.33" fill="#3a1280"/><path d="M 1095.33 35.33 A 35.33 35.33 0 0 1  1130.6599999999999 0 L 1130.6599999999999 35.33L1095.33 35.33" fill="#3b1384"/><rect x="1060" y="35.33" width="35.33" height="35.33" fill="#39117f"/><path d="M 1060 70.66 A 35.33 35.33 0 0 0 1095.33 35.33 L 1060 35.33L1060 70.66" fill="#39117e"/><rect x="1095.33" y="35.33" width="35.33" height="35.33" fill="#361079"/><path d="M 1095.33 35.33 A 35.33 35.33 0 0 0 1130.6599999999999 70.66 L 1130.6599999999999 35.33L1095.33 35.33" fill="#3a1280"/><rect x="0" y="70.67" width="70.67" height="70.67" fill="#3a1280"/><rect x="0" y="70.67" width="70.67" height="70.67" fill="#350f78"/><rect x="70.66666666666667" y="70.66666666666667" width="70.66666666666667" height="70.66666666666667" fill="#38107c"/><rect x="70.67" y="70.67" width="35.33" height="35.33" fill="#37107b"/><path d="M 70.67 106 A 35.33 35.33 0 0 0 106 70.67 L 70.67 70.67L70.67 106" fill="#39117e"/><rect x="106" y="70.67" width="35.33" height="35.33" fill="#340f77"/><path d="M 106 70.67 A 35.33 35.33 0 0 0 141.32999999999998 106 L 141.32999999999998 70.67L106 70.67" fill="#38107c"/><rect x="70.67" y="106" width="35.33" height="35.33" fill="#340f77"/><path d="M 70.67 106 A 35.33 35.33 0 0 1 106 141.32999999999998 L 70.67 141.32999999999998L70.67 106" fill="#3a1281"/><rect x="106" y="106" width="35.33" height="35.33" fill="#330f76"/><path d="M 106 141.32999999999998 A 35.33 35.33 0 0 1  141.32999999999998 106 L 141.32999999999998 141.32999999999998L106 141.32999999999998" fill="#3b1382"/><rect x="141.33" y="70.67" width="70.67" height="70.67" fill="#37107a"/><path d="M 141.33 141.34 A 70.67 70.67 0 0 0 212 70.67 L 141.33 70.67L141.33 141.34" fill="#361079"/><rect x="212" y="70.67" width="70.67" height="70.67" fill="#38107d"/><polygon points="282.67,70.67 282.67,141.34 212,141.34" fill="#3b1383"/><rect x="282.67" y="70.67" width="70.67" height="70.67" fill="#350f78"/><path d="M 282.67 70.67 A 70.67 70.67 0 0 1 353.34000000000003 141.34 L 282.67 141.34L282.67 70.67" fill="#3b1383"/><rect x="353.33333333333337" y="70.66666666666667" width="70.66666666666667" height="70.66666666666667" fill="#38107c"/><rect x="353.33" y="70.67" width="35.33" height="35.33" fill="#3b1384"/><polygon points="388.65999999999997,70.67 388.65999999999997,106 353.33,106" fill="#3b1384"/><rect x="388.67" y="70.67" width="35.33" height="35.33" fill="#38107c"/><polygon points="388.67,70.67 424,106 388.67,106" fill="#37107b"/><rect x="353.33" y="106" width="35.33" height="35.33" fill="#37107b"/><polygon points="353.33,106 388.65999999999997,106 388.65999999999997,141.32999999999998" fill="#38107c"/><rect x="388.67" y="106" width="35.33" height="35.33" fill="#3c1485"/><polygon points="388.67,106 424,106 388.67,141.32999999999998" fill="#340f78"/><rect x="424" y="70.67" width="70.67" height="70.67" fill="#39117e"/><path d="M 424 70.67 A 70.67 70.67 0 0 0 494.67 141.34 L 494.67 70.67L424 70.67" fill="#3b1383"/><rect x="494.6666666666667" y="70.66666666666667" width="70.66666666666667" height="70.66666666666667" fill="#38107c"/><rect x="494.67" y="70.67" width="35.33" height="35.33" fill="#37107b"/><circle cx="512.335" cy="88.33500000000001" r="17.665" fill="#3b1384"/><rect x="530" y="70.67" width="35.33" height="35.33" fill="#350f79"/><rect x="530" y="70.67" width="35.33" height="35.33" fill="#330f76"/><rect x="494.67" y="106" width="35.33" height="35.33" fill="#361079"/><circle cx="512.335" cy="123.66499999999999" r="17.665" fill="#3c1485"/><rect x="530" y="106" width="35.33" height="35.33" fill="#36107a"/><rect x="530" y="106" width="35.33" height="35.33" fill="#340f77"/><rect x="565.3333333333334" y="70.66666666666667" width="70.66666666666667" height="70.66666666666667" fill="#38107c"/><rect x="565.33" y="70.67" width="35.33" height="35.33" fill="#38107c"/><path d="M 565.33 106 A 35.33 35.33 0 0 1  600.6600000000001 70.67 L 600.6600000000001 106L565.33 106" fill="#36107a"/><rect x="600.67" y="70.67" width="35.33" height="35.33" fill="#3c1485"/><path d="M 600.67 70.67 A 35.33 35.33 0 0 1 636 106 L 600.67 106L600.67 70.67" fill="#350f78"/><rect x="565.33" y="106" width="35.33" height="35.33" fill="#39117f"/><path d="M 565.33 106 A 35.33 35.33 0 0 0 600.6600000000001 141.32999999999998 L 600.6600000000001 106L565.33 106" fill="#3a1280"/><rect x="600.67" y="106" width="35.33" height="35.33" fill="#350f79"/><path d="M 600.67 141.32999999999998 A 35.33 35.33 0 0 0 636 106 L 600.67 106L600.67 141.32999999999998" fill="#39117f"/><rect x="636" y="70.67" width="70.67" height="70.67" fill="#340f77"/><path d="M 636 141.34 A 70.67 70.67 0 0 1  706.67 70.67 L 706.67 141.34L636 141.34" fill="#340f77"/><rect x="706.67" y="70.67" width="70.67" height="70.67" fill="#3a1281"/><path d="M 706.67 141.34 A 70.67 70.67 0 0 0 777.3399999999999 70.67 L 706.67 70.67L706.67 141.34" fill="#3b1382"/><rect x="777.33" y="70.67" width="70.67" height="70.67" fill="#361079"/><rect x="777.33" y="70.67" width="70.67" height="70.67" fill="#3a1281"/><rect x="848" y="70.66666666666667" width="70.66666666666667" height="70.66666666666667" fill="#38107c"/><rect x="848" y="70.67" width="35.33" height="35.33" fill="#350f78"/><path d="M 848 70.67 A 35.33 35.33 0 0 1 883.33 106 L 848 106L848 70.67" fill="#3c1485"/><rect x="883.33" y="70.67" width="35.33" height="35.33" fill="#37107b"/><path d="M 883.33 106 A 35.33 35.33 0 0 1  918.6600000000001 70.67 L 918.6600000000001 106L883.33 106" fill="#39117e"/><rect x="848" y="106" width="35.33" height="35.33" fill="#3c1484"/><path d="M 848 141.32999999999998 A 35.33 35.33 0 0 0 883.33 106 L 848 106L848 141.32999999999998" fill="#38107b"/><rect x="883.33" y="106" width="35.33" height="35.33" fill="#340f77"/><path d="M 883.33 106 A 35.33 35.33 0 0 0 918.6600000000001 141.32999999999998 L 918.6600000000001 106L883.33 106" fill="#38107c"/><rect x="918.6666666666667" y="70.66666666666667" width="70.66666666666667" height="70.66666666666667" fill="#38107c"/><rect x="918.67" y="70.67" width="35.33" height="35.33" fill="#38107d"/><path d="M 918.67 70.67 A 35.33 35.33 0 0 1 954 106 L 918.67 106L918.67 70.67" fill="#3b1383"/><rect x="954" y="70.67" width="35.33" height="35.33" fill="#3c1484"/><path d="M 954 106 A 35.33 35.33 0 0 1  989.33 70.67 L 989.33 106L954 106" fill="#36107a"/><rect x="918.67" y="106" width="35.33" height="35.33" fill="#340f77"/><path d="M 918.67 141.32999999999998 A 35.33 35.33 0 0 0 954 106 L 918.67 106L918.67 141.32999999999998" fill="#340f78"/><rect x="954" y="106" width="35.33" height="35.33" fill="#36107a"/><path d="M 954 106 A 35.33 35.33 0 0 0 989.33 141.32999999999998 L 989.33 106L954 106" fill="#39117e"/><rect x="989.33" y="70.67" width="70.67" height="70.67" fill="#361079"/><path d="M 989.33 70.67 A 70.67 70.67 0 0 1  1060 141.34 L 989.33 70.67 A 70.67 70.67 0 0 0 1060 141.34" fill="#340f77"/><rect x="1060" y="70.67" width="70.67" height="70.67" fill="#340f77"/><path d="M 1060 70.67 A 70.67 70.67 0 0 1  1130.67 141.34 L 1060 70.67 A 70.67 70.67 0 0 0 1130.67 141.34" fill="#3c1485"/><rect x="0" y="141.33" width="70.67" height="70.67" fill="#3b1383"/><path d="M 0 212 A 70.67 70.67 0 0 0 70.67 141.33 L 0 141.33L0 212" fill="#330f76"/><rect x="70.66666666666667" y="141.33333333333334" width="70.66666666666667" height="70.66666666666667" fill="#38107c"/><rect x="70.67" y="141.33" width="35.33" height="35.33" fill="#39117e"/><path d="M 70.67 176.66000000000003 A 35.33 35.33 0 0 1 106 141.33 L 106 150.16250000000002 A 26.4975 26.4975 0 0 0 79.5025 176.66000000000003" fill="#3a1281"/><rect x="106" y="141.33" width="35.33" height="35.33" fill="#3a1281"/><path d="M 106 141.33 A 35.33 35.33 0 0 1 141.32999999999998 176.66000000000003 L 132.4975 176.66000000000003 A 26.4975 26.4975 0 0 0 106 150.16250000000002" fill="#3b1384"/><rect x="70.67" y="176.67" width="35.33" height="35.33" fill="#3a1281"/><path d="M 70.67 176.67 A 35.33 35.33 0 0 0 106 212 L 106 203.1675 A 26.4975 26.4975 0 0 1 79.5025 176.67" fill="#330f76"/><rect x="106" y="176.67" width="35.33" height="35.33" fill="#37107b"/><path d="M 106 212 A 35.33 35.33 0 0 0 141.32999999999998 176.67 L 132.4975 176.67 A 26.4975 26.4975 0 0 1 106 203.1675" fill="#38107c"/><rect x="141.33333333333334" y="141.33333333333334" width="70.66666666666667" height="70.66666666666667" fill="#38107c"/><rect x="141.33" y="141.33" width="35.33" height="35.33" fill="#340f78"/><path d="M 141.33 176.66000000000003 A 35.33 35.33 0 0 1 176.66000000000003 141.33 L 176.66000000000003 150.16250000000002 A 26.4975 26.4975 0 0 0 150.16250000000002 176.66000000000003" fill="#3b1384"/><rect x="176.67" y="141.33" width="35.33" height="35.33" fill="#3b1384"/><path d="M 176.67 141.33 A 35.33 35.33 0 0 1 212 176.66000000000003 L 203.1675 176.66000000000003 A 26.4975 26.4975 0 0 0 176.67 150.16250000000002" fill="#330f76"/><rect x="141.33" y="176.67" width="35.33" height="35.33" fill="#3c1484"/><path d="M 141.33 176.67 A 35.33 35.33 0 0 0 176.66000000000003 212 L 176.66000000000003 203.1675 A 26.4975 26.4975 0 0 1 150.16250000000002 176.67" fill="#3a1280"/><rect x="176.67" y="176.67" width="35.33" height="35.33" fill="#3b1382"/><path d="M 176.67 212 A 35.33 35.33 0 0 0 212 176.67 L 203.1675 176.67 A 26.4975 26.4975 0 0 1 176.67 203.1675" fill="#330f76"/><rect x="212" y="141.33" width="70.67" height="70.67" fill="#350f78"/><polygon points="212,141.33 282.67,212 212,212" fill="#340f77"/><rect x="282.67" y="141.33" width="70.67" height="70.67" fill="#3c1485"/><polygon points="282.67,141.33 353.34000000000003,141.33 353.34000000000003,212" fill="#3a1280"/><rect x="353.33" y="141.33" width="70.67" height="70.67" fill="#37107b"/><polygon points="353.33,141.33 424,141.33 424,212" fill="#3c1484"/><rect x="424" y="141.33" width="70.67" height="70.67" fill="#3a1281"/><path d="M 424 141.33 A 70.67 70.67 0 0 0 494.67 212 L 494.67 141.33L424 141.33" fill="#36107a"/><rect x="494.6666666666667" y="141.33333333333334" width="70.66666666666667" height="70.66666666666667" fill="#38107c"/><rect x="494.67" y="141.33" width="35.33" height="35.33" fill="#39117f"/><polygon points="530,141.33 530,176.66000000000003 494.67,176.66000000000003" fill="#37107b"/><rect x="530" y="141.33" width="35.33" height="35.33" fill="#38107c"/><polygon points="530,141.33 565.33,141.33 530,176.66000000000003" fill="#38107d"/><rect x="494.67" y="176.67" width="35.33" height="35.33" fill="#3a127f"/><polygon points="494.67,176.67 530,176.67 530,212" fill="#38107d"/><rect x="530" y="176.67" width="35.33" height="35.33" fill="#350f78"/><polygon points="530,176.67 565.33,212 530,212" fill="#38107d"/><rect x="565.33" y="141.33" width="70.67" height="70.67" fill="#3a127f"/><rect x="565.33" y="141.33" width="70.67" height="70.67" fill="#330f76"/><rect x="636" y="141.33" width="70.67" height="70.67" fill="#350f78"/><polygon points="636,141.33 706.67,141.33 706.67,212" fill="#36107a"/><rect x="706.6666666666667" y="141.33333333333334" width="70.66666666666667" height="70.66666666666667" fill="#38107c"/><rect x="706.67" y="141.33" width="35.33" height="35.33" fill="#3c1484"/><path d="M 706.67 141.33 A 35.33 35.33 0 0 1 742 176.66000000000003 L 706.67 176.66000000000003L706.67 141.33" fill="#3c1484"/><rect x="742" y="141.33" width="35.33" height="35.33" fill="#3a1280"/><path d="M 742 176.66000000000003 A 35.33 35.33 0 0 1  777.33 141.33 L 777.33 176.66000000000003L742 176.66000000000003" fill="#3b1384"/><rect x="706.67" y="176.67" width="35.33" height="35.33" fill="#3b1384"/><path d="M 706.67 212 A 35.33 35.33 0 0 0 742 176.67 L 706.67 176.67L706.67 212" fill="#3a1280"/><rect x="742" y="176.67" width="35.33" height="35.33" fill="#330f76"/><path d="M 742 176.67 A 35.33 35.33 0 0 0 777.33 212 L 777.33 176.67L742 176.67" fill="#3b1384"/><rect x="777.33" y="141.33" width="70.67" height="70.67" fill="#37107b"/><rect x="777.33" y="141.33" width="70.67" height="70.67" fill="#340f77"/><rect x="848" y="141.33333333333334" width="70.66666666666667" height="70.66666666666667" fill="#38107c"/><rect x="848" y="141.33" width="35.33" height="35.33" fill="#39117f"/><polygon points="883.33,141.33 883.33,176.66000000000003 848,176.66000000000003" fill="#350f79"/><rect x="883.33" y="141.33" width="35.33" height="35.33" fill="#38107c"/><polygon points="883.33,141.33 918.6600000000001,176.66000000000003 883.33,176.66000000000003" fill="#3b1384"/><rect x="848" y="176.67" width="35.33" height="35.33" fill="#330f76"/><polygon points="848,176.67 883.33,176.67 883.33,212" fill="#3b1383"/><rect x="883.33" y="176.67" width="35.33" height="35.33" fill="#3b1383"/><polygon points="883.33,176.67 918.6600000000001,176.67 883.33,212" fill="#36107a"/><rect x="918.6666666666667" y="141.33333333333334" width="70.66666666666667" height="70.66666666666667" fill="#38107c"/><rect x="918.67" y="141.33" width="35.33" height="35.33" fill="#37107b"/><path d="M 918.67 176.66000000000003 A 35.33 35.33 0 0 1  954 141.33 L 954 176.66000000000003L918.67 176.66000000000003" fill="#340f78"/><rect x="954" y="141.33" width="35.33" height="35.33" fill="#3b1383"/><path d="M 954 141.33 A 35.33 35.33 0 0 1 989.33 176.66000000000003 L 954 176.66000000000003L954 141.33" fill="#350f78"/><rect x="918.67" y="176.67" width="35.33" height="35.33" fill="#37107b"/><path d="M 918.67 176.67 A 35.33 35.33 0 0 0 954 212 L 954 176.67L918.67 176.67" fill="#330f76"/><rect x="954" y="176.67" width="35.33" height="35.33" fill="#3c1484"/><path d="M 954 212 A 35.33 35.33 0 0 0 989.33 176.67 L 954 176.67L954 212" fill="#39117f"/><rect x="989.33" y="141.33" width="70.67" height="70.67" fill="#3a1280"/><polygon points="1060,141.33 1060,212 989.33,212" fill="#38107d"/><rect x="1060" y="141.33333333333334" width="70.66666666666667" height="70.66666666666667" fill="#38107c"/><rect x="1060" y="141.33" width="35.33" height="35.33" fill="#39117f"/><path d="M 1060 141.33 A 35.33 35.33 0 0 0 1095.33 176.66000000000003 L 1095.33 141.33L1060 141.33" fill="#3b1383"/><rect x="1095.33" y="141.33" width="35.33" height="35.33" fill="#350f79"/><path d="M 1095.33 176.66000000000003 A 35.33 35.33 0 0 0 1130.6599999999999 141.33 L 1095.33 141.33L1095.33 176.66000000000003" fill="#340f78"/><rect x="1060" y="176.67" width="35.33" height="35.33" fill="#340f77"/><path d="M 1060 212 A 35.33 35.33 0 0 1  1095.33 176.67 L 1095.33 212L1060 212" fill="#361079"/><rect x="1095.33" y="176.67" width="35.33" height="35.33" fill="#3a1281"/><path d="M 1095.33 176.67 A 35.33 35.33 0 0 1 1130.6599999999999 212 L 1095.33 212L1095.33 176.67" fill="#39117f"/><rect x="0" y="212" width="70.66666666666667" height="70.66666666666667" fill="#38107c"/><rect x="0" y="212" width="35.33" height="35.33" fill="#3b1382"/><path d="M 0 247.32999999999998 A 35.33 35.33 0 0 1  35.33 212 L 35.33 247.32999999999998L0 247.32999999999998" fill="#36107a"/><rect x="35.33" y="212" width="35.33" height="35.33" fill="#39117e"/><path d="M 35.33 212 A 35.33 35.33 0 0 1 70.66 247.32999999999998 L 35.33 247.32999999999998L35.33 212" fill="#330f77"/><rect x="0" y="247.33" width="35.33" height="35.33" fill="#3a1281"/><path d="M 0 247.33 A 35.33 35.33 0 0 0 35.33 282.66 L 35.33 247.33L0 247.33" fill="#38107c"/><rect x="35.33" y="247.33" width="35.33" height="35.33" fill="#350f79"/><path d="M 35.33 282.66 A 35.33 35.33 0 0 0 70.66 247.33 L 35.33 247.33L35.33 282.66" fill="#361079"/><rect x="70.66666666666667" y="212" width="70.66666666666667" height="70.66666666666667" fill="#38107c"/><rect x="70.67" y="212" width="35.33" height="35.33" fill="#3c1485"/><polygon points="106,212 106,247.32999999999998 70.67,247.32999999999998" fill="#37107b"/><rect x="106" y="212" width="35.33" height="35.33" fill="#3a1281"/><polygon points="106,212 141.32999999999998,247.32999999999998 106,247.32999999999998" fill="#340f77"/><rect x="70.67" y="247.33" width="35.33" height="35.33" fill="#38107c"/><polygon points="70.67,247.33 106,247.33 70.67,282.66" fill="#36107a"/><rect x="106" y="247.33" width="35.33" height="35.33" fill="#36107a"/><polygon points="106,247.33 141.32999999999998,247.33 141.32999999999998,282.66" fill="#38107d"/><rect x="141.33" y="212" width="70.67" height="70.67" fill="#37107b"/><rect x="141.33" y="212" width="70.67" height="70.67" fill="#3c1485"/><rect x="212" y="212" width="70.66666666666667" height="70.66666666666667" fill="#38107c"/><rect x="212" y="212" width="35.33" height="35.33" fill="#3b1383"/><path d="M 212 247.32999999999998 A 35.33 35.33 0 0 1  247.32999999999998 212 L 247.32999999999998 247.32999999999998L212 247.32999999999998" fill="#38107d"/><rect x="247.33" y="212" width="35.33" height="35.33" fill="#37107b"/><path d="M 247.33 212 A 35.33 35.33 0 0 1 282.66 247.32999999999998 L 247.33 247.32999999999998L247.33 212" fill="#350f79"/><rect x="212" y="247.33" width="35.33" height="35.33" fill="#350f78"/><path d="M 212 247.33 A 35.33 35.33 0 0 0 247.32999999999998 282.66 L 247.32999999999998 247.33L212 247.33" fill="#39117f"/><rect x="247.33" y="247.33" width="35.33" height="35.33" fill="#36107a"/><path d="M 247.33 282.66 A 35.33 35.33 0 0 0 282.66 247.33 L 247.33 247.33L247.33 282.66" fill="#361079"/><rect x="282.67" y="212" width="70.67" height="70.67" fill="#330f76"/><polygon points="282.67,212 353.34000000000003,212 353.34000000000003,282.67" fill="#350f78"/><rect x="353.33" y="212" width="70.67" height="70.67" fill="#3b1383"/><polygon points="424,212 424,282.67 353.33,282.67" fill="#330f76"/><rect x="424" y="212" width="70.66666666666667" height="70.66666666666667" fill="#38107c"/><rect x="424" y="212" width="35.33" height="35.33" fill="#38107c"/><polygon points="459.33,212 459.33,247.32999999999998 424,247.32999999999998" fill="#36107a"/><rect x="459.33" y="212" width="35.33" height="35.33" fill="#39117e"/><polygon points="459.33,212 494.65999999999997,212 459.33,247.32999999999998" fill="#350f79"/><rect x="424" y="247.33" width="35.33" height="35.33" fill="#3b1384"/><polygon points="424,247.33 459.33,247.33 459.33,282.66" fill="#38107c"/><rect x="459.33" y="247.33" width="35.33" height="35.33" fill="#330f76"/><polygon points="459.33,247.33 494.65999999999997,282.66 459.33,282.66" fill="#38107d"/><rect x="494.67" y="212" width="70.67" height="70.67" fill="#37107b"/><polygon points="494.67,212 565.34,212 565.34,282.67" fill="#330f76"/><rect x="565.33" y="212" width="70.67" height="70.67" fill="#39117e"/><rect x="565.33" y="212" width="70.67" height="70.67" fill="#38107c"/><rect x="636" y="212" width="70.67" height="70.67" fill="#38107d"/><polygon points="636,212 706.67,282.67 636,282.67" fill="#3a1281"/><rect x="706.6666666666667" y="212" width="70.66666666666667" height="70.66666666666667" fill="#38107c"/><rect x="706.67" y="212" width="35.33" height="35.33" fill="#350f78"/><path d="M 706.67 212 A 35.33 35.33 0 0 1 742 247.32999999999998 L 706.67 247.32999999999998L706.67 212" fill="#330f76"/><rect x="742" y="212" width="35.33" height="35.33" fill="#3c1485"/><path d="M 742 247.32999999999998 A 35.33 35.33 0 0 1  777.33 212 L 777.33 247.32999999999998L742 247.32999999999998" fill="#3a1281"/><rect x="706.67" y="247.33" width="35.33" height="35.33" fill="#38107d"/><path d="M 706.67 282.66 A 35.33 35.33 0 0 0 742 247.33 L 706.67 247.33L706.67 282.66" fill="#3b1383"/><rect x="742" y="247.33" width="35.33" height="35.33" fill="#3c1484"/><path d="M 742 247.33 A 35.33 35.33 0 0 0 777.33 282.66 L 777.33 247.33L742 247.33" fill="#38107b"/><rect x="777.3333333333334" y="212" width="70.66666666666667" height="70.66666666666667" fill="#38107c"/><rect x="777.33" y="212" width="35.33" height="35.33" fill="#361079"/><circle cx="794.995" cy="229.665" r="17.665" fill="#3b1383"/><rect x="812.67" y="212" width="35.33" height="35.33" fill="#330f77"/><rect x="812.67" y="212" width="35.33" height="35.33" fill="#3b1382"/><rect x="777.33" y="247.33" width="35.33" height="35.33" fill="#350f78"/><circle cx="794.995" cy="264.995" r="17.665" fill="#38107d"/><rect x="812.67" y="247.33" width="35.33" height="35.33" fill="#38107c"/><rect x="812.67" y="247.33" width="35.33" height="35.33" fill="#36107a"/><rect x="848" y="212" width="70.67" height="70.67" fill="#39117e"/><polygon points="918.67,212 918.67,282.67 848,282.67" fill="#3b1382"/><rect x="918.67" y="212" width="70.67" height="70.67" fill="#340f77"/><polygon points="918.67,212 989.3399999999999,212 918.67,282.67" fill="#340f77"/><rect x="989.3333333333334" y="212" width="70.66666666666667" height="70.66666666666667" fill="#38107c"/><rect x="989.33" y="212" width="35.33" height="35.33" fill="#330f76"/><polygon points="1024.66,212 1024.66,247.32999999999998 989.33,247.32999999999998" fill="#38107c"/><rect x="1024.67" y="212" width="35.33" height="35.33" fill="#3a1281"/><polygon points="1024.67,212 1060,247.32999999999998 1024.67,247.32999999999998" fill="#3a1280"/><rect x="989.33" y="247.33" width="35.33" height="35.33" fill="#361079"/><polygon points="989.33,247.33 1024.66,247.33 989.33,282.66" fill="#3b1382"/><rect x="1024.67" y="247.33" width="35.33" height="35.33" fill="#36107a"/><polygon points="1024.67,247.33 1060,247.33 1060,282.66" fill="#3b1384"/><rect x="1060" y="212" width="70.67" height="70.67" fill="#36107a"/><polygon points="1060,212 1130.67,282.67 1060,282.67" fill="#330f76"/><rect x="0" y="282.6666666666667" width="70.66666666666667" height="70.66666666666667" fill="#38107c"/><rect x="0" y="282.67" width="35.33" height="35.33" fill="#340f78"/><path d="M 0 282.67 A 35.33 35.33 0 0 1 35.33 318 L 0 318L0 282.67" fill="#38107b"/><rect x="35.33" y="282.67" width="35.33" height="35.33" fill="#330f76"/><path d="M 35.33 318 A 35.33 35.33 0 0 1  70.66 282.67 L 70.66 318L35.33 318" fill="#330f76"/><rect x="0" y="318" width="35.33" height="35.33" fill="#340f77"/><path d="M 0 353.33 A 35.33 35.33 0 0 0 35.33 318 L 0 318L0 353.33" fill="#350f78"/><rect x="35.33" y="318" width="35.33" height="35.33" fill="#361079"/><path d="M 35.33 318 A 35.33 35.33 0 0 0 70.66 353.33 L 70.66 318L35.33 318" fill="#3a1280"/><rect x="70.67" y="282.67" width="70.67" height="70.67" fill="#38107c"/><rect x="70.67" y="282.67" width="70.67" height="70.67" fill="#39117e"/><rect x="141.33333333333334" y="282.6666666666667" width="70.66666666666667" height="70.66666666666667" fill="#38107c"/><rect x="141.33" y="282.67" width="35.33" height="35.33" fill="#3a1281"/><circle cx="158.995" cy="300.33500000000004" r="17.665" fill="#3b1382"/><rect x="176.67" y="282.67" width="35.33" height="35.33" fill="#3a1280"/><rect x="176.67" y="282.67" width="35.33" height="35.33" fill="#37107b"/><rect x="141.33" y="318" width="35.33" height="35.33" fill="#3b1382"/><circle cx="158.995" cy="335.665" r="17.665" fill="#36107a"/><rect x="176.67" y="318" width="35.33" height="35.33" fill="#361079"/><rect x="176.67" y="318" width="35.33" height="35.33" fill="#38107c"/><rect x="212" y="282.67" width="70.67" height="70.67" fill="#39117d"/><polygon points="212,282.67 282.67,282.67 212,353.34000000000003" fill="#39117f"/><rect x="282.67" y="282.67" width="70.67" height="70.67" fill="#39117f"/><rect x="282.67" y="282.67" width="70.67" height="70.67" fill="#3c1484"/><rect x="353.33" y="282.67" width="70.67" height="70.67" fill="#37107a"/><polygon points="353.33,282.67 424,282.67 424,353.34000000000003" fill="#3a1280"/><rect x="424" y="282.67" width="70.67" height="70.67" fill="#38107c"/><path d="M 424 282.67 A 70.67 70.67 0 0 0 494.67 353.34000000000003 L 494.67 282.67L424 282.67" fill="#350f78"/><rect x="494.6666666666667" y="282.6666666666667" width="70.66666666666667" height="70.66666666666667" fill="#38107c"/><rect x="494.67" y="282.67" width="35.33" height="35.33" fill="#3b1384"/><path d="M 494.67 318 A 35.33 35.33 0 0 1  530 282.67 L 530 318L494.67 318" fill="#340f77"/><rect x="530" y="282.67" width="35.33" height="35.33" fill="#330f76"/><path d="M 530 282.67 A 35.33 35.33 0 0 1 565.33 318 L 530 318L530 282.67" fill="#39117f"/><rect x="494.67" y="318" width="35.33" height="35.33" fill="#38107c"/><path d="M 494.67 318 A 35.33 35.33 0 0 0 530 353.33 L 530 318L494.67 318" fill="#38107c"/><rect x="530" y="318" width="35.33" height="35.33" fill="#39117e"/><path d="M 530 353.33 A 35.33 35.33 0 0 0 565.33 318 L 530 318L530 353.33" fill="#350f79"/><rect x="565.33" y="282.67" width="70.67" height="70.67" fill="#37107a"/><rect x="565.33" y="282.67" width="70.67" height="70.67" fill="#37107b"/><rect x="636" y="282.67" width="70.67" height="70.67" fill="#3c1485"/><polygon points="706.67,282.67 706.67,353.34000000000003 636,353.34000000000003" fill="#330f76"/><rect x="706.6666666666667" y="282.6666666666667" width="70.66666666666667" height="70.66666666666667" fill="#38107c"/><rect x="706.67" y="282.67" width="35.33" height="35.33" fill="#37107a"/><polygon points="742,282.67 742,318 706.67,318" fill="#36107a"/><rect x="742" y="282.67" width="35.33" height="35.33" fill="#3b1382"/><polygon points="742,282.67 777.33,318 742,318" fill="#3b1383"/><rect x="706.67" y="318" width="35.33" height="35.33" fill="#350f78"/><polygon points="706.67,318 742,318 742,353.33" fill="#39117d"/><rect x="742" y="318" width="35.33" height="35.33" fill="#350f78"/><polygon points="742,318 777.33,318 742,353.33" fill="#340f77"/><rect x="777.33" y="282.67" width="70.67" height="70.67" fill="#3b1382"/><rect x="777.33" y="282.67" width="70.67" height="70.67" fill="#37107b"/><rect x="848" y="282.67" width="70.67" height="70.67" fill="#350f78"/><polygon points="918.67,282.67 918.67,353.34000000000003 848,353.34000000000003" fill="#361079"/><rect x="918.6666666666667" y="282.6666666666667" width="70.66666666666667" height="70.66666666666667" fill="#38107c"/><rect x="918.67" y="282.67" width="35.33" height="35.33" fill="#38107c"/><path d="M 918.67 282.67 A 35.33 35.33 0 0 1 954 318 L 918.67 318L918.67 282.67" fill="#37107b"/><rect x="954" y="282.67" width="35.33" height="35.33" fill="#37107b"/><path d="M 954 318 A 35.33 35.33 0 0 1  989.33 282.67 L 989.33 318L954 318" fill="#3b1384"/><rect x="918.67" y="318" width="35.33" height="35.33" fill="#37107b"/><path d="M 918.67 353.33 A 35.33 35.33 0 0 0 954 318 L 918.67 318L918.67 353.33" fill="#3a1281"/><rect x="954" y="318" width="35.33" height="35.33" fill="#39117d"/><path d="M 954 318 A 35.33 35.33 0 0 0 989.33 353.33 L 989.33 318L954 318" fill="#3a1280"/><rect x="989.3333333333334" y="282.6666666666667" width="70.66666666666667" height="70.66666666666667" fill="#38107c"/><rect x="989.33" y="282.67" width="35.33" height="35.33" fill="#350f79"/><path d="M 989.33 318 A 35.33 35.33 0 0 0 1024.66 282.67 L 989.33 282.67L989.33 318" fill="#37107b"/><rect x="1024.67" y="282.67" width="35.33" height="35.33" fill="#3a127f"/><path d="M 1024.67 282.67 A 35.33 35.33 0 0 0 1060 318 L 1060 282.67L1024.67 282.67" fill="#3c1485"/><rect x="989.33" y="318" width="35.33" height="35.33" fill="#39117d"/><path d="M 989.33 318 A 35.33 35.33 0 0 1 1024.66 353.33 L 989.33 353.33L989.33 318" fill="#350f79"/><rect x="1024.67" y="318" width="35.33" height="35.33" fill="#39117f"/><path d="M 1024.67 353.33 A 35.33 35.33 0 0 1  1060 318 L 1060 353.33L1024.67 353.33" fill="#350f78"/><rect x="1060" y="282.67" width="70.67" height="70.67" fill="#37107b"/><rect x="1060" y="282.67" width="70.67" height="70.67" fill="#38107c"/><rect x="0" y="353.33" width="70.67" height="70.67" fill="#3a1280"/><polygon points="0,353.33 70.67,353.33 70.67,424" fill="#340f77"/><rect x="70.66666666666667" y="353.33333333333337" width="70.66666666666667" height="70.66666666666667" fill="#38107c"/><rect x="70.67" y="353.33" width="35.33" height="35.33" fill="#39117d"/><polygon points="106,353.33 106,388.65999999999997 70.67,388.65999999999997" fill="#350f79"/><rect x="106" y="353.33" width="35.33" height="35.33" fill="#39117e"/><polygon points="106,353.33 141.32999999999998,388.65999999999997 106,388.65999999999997" fill="#38107c"/><rect x="70.67" y="388.67" width="35.33" height="35.33" fill="#350f79"/><polygon points="70.67,388.67 106,388.67 70.67,424" fill="#3a1281"/><rect x="106" y="388.67" width="35.33" height="35.33" fill="#330f76"/><polygon points="106,388.67 141.32999999999998,388.67 141.32999999999998,424" fill="#340f77"/><rect x="141.33" y="353.33" width="70.67" height="70.67" fill="#340f78"/><polygon points="141.33,353.33 212,353.33 212,424" fill="#3a1281"/><rect x="212" y="353.33333333333337" width="70.66666666666667" height="70.66666666666667" fill="#38107c"/><rect x="212" y="353.33" width="35.33" height="35.33" fill="#39117f"/><path d="M 212 353.33 A 35.33 35.33 0 0 0 247.32999999999998 388.65999999999997 L 247.32999999999998 353.33L212 353.33" fill="#39117d"/><rect x="247.33" y="353.33" width="35.33" height="35.33" fill="#361079"/><path d="M 247.33 388.65999999999997 A 35.33 35.33 0 0 0 282.66 353.33 L 247.33 353.33L247.33 388.65999999999997" fill="#37107b"/><rect x="212" y="388.67" width="35.33" height="35.33" fill="#330f76"/><path d="M 212 424 A 35.33 35.33 0 0 1  247.32999999999998 388.67 L 247.32999999999998 424L212 424" fill="#3a1281"/><rect x="247.33" y="388.67" width="35.33" height="35.33" fill="#340f77"/><path d="M 247.33 388.67 A 35.33 35.33 0 0 1 282.66 424 L 247.33 424L247.33 388.67" fill="#340f77"/><rect x="282.6666666666667" y="353.33333333333337" width="70.66666666666667" height="70.66666666666667" fill="#38107c"/><rect x="282.67" y="353.33" width="35.33" height="35.33" fill="#38107c"/><polygon points="318,353.33 318,388.65999999999997 282.67,388.65999999999997" fill="#37107b"/><rect x="318" y="353.33" width="35.33" height="35.33" fill="#3b1383"/><polygon points="318,353.33 353.33,353.33 318,388.65999999999997" fill="#38107c"/><rect x="282.67" y="388.67" width="35.33" height="35.33" fill="#3b1383"/><polygon points="282.67,388.67 318,388.67 318,424" fill="#3c1484"/><rect x="318" y="388.67" width="35.33" height="35.33" fill="#330f76"/><polygon points="318,388.67 353.33,424 318,424" fill="#3a1281"/><rect x="353.33" y="353.33" width="70.67" height="70.67" fill="#340f78"/><polygon points="424,353.33 424,424 353.33,424" fill="#3b1384"/><rect x="424" y="353.33" width="70.67" height="70.67" fill="#350f79"/><rect x="424" y="353.33" width="70.67" height="70.67" fill="#361079"/><rect x="494.6666666666667" y="353.33333333333337" width="70.66666666666667" height="70.66666666666667" fill="#38107c"/><rect x="494.67" y="353.33" width="35.33" height="35.33" fill="#340f77"/><polygon points="530,353.33 530,388.65999999999997 494.67,388.65999999999997" fill="#3c1484"/><rect x="530" y="353.33" width="35.33" height="35.33" fill="#3b1383"/><polygon points="530,353.33 565.33,388.65999999999997 530,388.65999999999997" fill="#340f77"/><rect x="494.67" y="388.67" width="35.33" height="35.33" fill="#39117e"/><polygon points="494.67,388.67 530,388.67 530,424" fill="#3b1383"/><rect x="530" y="388.67" width="35.33" height="35.33" fill="#38107d"/><polygon points="530,388.67 565.33,388.67 530,424" fill="#3a1281"/><rect x="565.33" y="353.33" width="70.67" height="70.67" fill="#38107c"/><path d="M 565.33 424 A 70.67 70.67 0 0 1  636 353.33 L 636 424L565.33 424" fill="#3b1384"/><rect x="636" y="353.33333333333337" width="70.66666666666667" height="70.66666666666667" fill="#38107c"/><rect x="636" y="353.33" width="35.33" height="35.33" fill="#39117d"/><polygon points="671.33,353.33 671.33,388.65999999999997 636,388.65999999999997" fill="#37107a"/><rect x="671.33" y="353.33" width="35.33" height="35.33" fill="#350f78"/><polygon points="671.33,353.33 706.6600000000001,388.65999999999997 671.33,388.65999999999997" fill="#340f77"/><rect x="636" y="388.67" width="35.33" height="35.33" fill="#340f77"/><polygon points="636,388.67 671.33,388.67 671.33,424" fill="#350f79"/><rect x="671.33" y="388.67" width="35.33" height="35.33" fill="#38107c"/><polygon points="671.33,388.67 706.6600000000001,388.67 671.33,424" fill="#340f77"/><rect x="706.6666666666667" y="353.33333333333337" width="70.66666666666667" height="70.66666666666667" fill="#38107c"/><rect x="706.67" y="353.33" width="35.33" height="35.33" fill="#39117f"/><path d="M 706.67 388.65999999999997 A 35.33 35.33 0 0 1  742 353.33 L 742 388.65999999999997L706.67 388.65999999999997" fill="#340f77"/><rect x="742" y="353.33" width="35.33" height="35.33" fill="#39117e"/><path d="M 742 353.33 A 35.33 35.33 0 0 1 777.33 388.65999999999997 L 742 388.65999999999997L742 353.33" fill="#361079"/><rect x="706.67" y="388.67" width="35.33" height="35.33" fill="#330f76"/><path d="M 706.67 388.67 A 35.33 35.33 0 0 0 742 424 L 742 388.67L706.67 388.67" fill="#3c1484"/><rect x="742" y="388.67" width="35.33" height="35.33" fill="#3a1280"/><path d="M 742 424 A 35.33 35.33 0 0 0 777.33 388.67 L 742 388.67L742 424" fill="#340f77"/><rect x="777.33" y="353.33" width="70.67" height="70.67" fill="#39117e"/><path d="M 777.33 353.33 A 70.67 70.67 0 0 1  848 424 L 777.33 353.33 A 70.67 70.67 0 0 0 848 424" fill="#39117e"/><rect x="848" y="353.33333333333337" width="70.66666666666667" height="70.66666666666667" fill="#38107c"/><rect x="848" y="353.33" width="35.33" height="35.33" fill="#39117f"/><polygon points="883.33,353.33 883.33,388.65999999999997 848,388.65999999999997" fill="#38107c"/><rect x="883.33" y="353.33" width="35.33" height="35.33" fill="#3a1281"/><polygon points="883.33,353.33 918.6600000000001,353.33 883.33,388.65999999999997" fill="#37107b"/><rect x="848" y="388.67" width="35.33" height="35.33" fill="#340f77"/><polygon points="848,388.67 883.33,388.67 883.33,424" fill="#3b1383"/><rect x="883.33" y="388.67" width="35.33" height="35.33" fill="#340f77"/><polygon points="883.33,388.67 918.6600000000001,424 883.33,424" fill="#3b1382"/><rect x="918.67" y="353.33" width="70.67" height="70.67" fill="#340f77"/><rect x="918.67" y="353.33" width="70.67" height="70.67" fill="#350f79"/><rect x="989.33" y="353.33" width="70.67" height="70.67" fill="#38107d"/><rect x="989.33" y="353.33" width="70.67" height="70.67" fill="#3b1382"/><rect x="1060" y="353.33" width="70.67" height="70.67" fill="#3c1484"/><rect x="1060" y="353.33" width="70.67" height="70.67" fill="#37107a"/><rect x="0" y="424" width="70.67" height="70.67" fill="#3b1382"/><rect x="0" y="424" width="70.67" height="70.67" fill="#330f76"/><rect x="70.66666666666667" y="424" width="70.66666666666667" height="70.66666666666667" fill="#38107c"/><rect x="70.67" y="424" width="35.33" height="35.33" fill="#3b1382"/><path d="M 70.67 424 A 35.33 35.33 0 0 0 106 459.33 L 106 424L70.67 424" fill="#340f77"/><rect x="106" y="424" width="35.33" height="35.33" fill="#38107c"/><path d="M 106 459.33 A 35.33 35.33 0 0 0 141.32999999999998 424 L 106 424L106 459.33" fill="#3b1383"/><rect x="70.67" y="459.33" width="35.33" height="35.33" fill="#3c1485"/><path d="M 70.67 494.65999999999997 A 35.33 35.33 0 0 1  106 459.33 L 106 494.65999999999997L70.67 494.65999999999997" fill="#38107d"/><rect x="106" y="459.33" width="35.33" height="35.33" fill="#3a1281"/><path d="M 106 459.33 A 35.33 35.33 0 0 1 141.32999999999998 494.65999999999997 L 106 494.65999999999997L106 459.33" fill="#361079"/><rect x="141.33" y="424" width="70.67" height="70.67" fill="#361079"/><rect x="141.33" y="424" width="70.67" height="70.67" fill="#36107a"/><rect x="212" y="424" width="70.66666666666667" height="70.66666666666667" fill="#38107c"/><rect x="212" y="424" width="35.33" height="35.33" fill="#37107b"/><path d="M 212 459.33 A 35.33 35.33 0 0 1 247.32999999999998 424 L 247.32999999999998 432.8325 A 26.4975 26.4975 0 0 0 220.8325 459.33" fill="#38107b"/><rect x="247.33" y="424" width="35.33" height="35.33" fill="#39117e"/><path d="M 247.33 424 A 35.33 35.33 0 0 1 282.66 459.33 L 273.8275 459.33 A 26.4975 26.4975 0 0 0 247.33 432.8325" fill="#3a1281"/><rect x="212" y="459.33" width="35.33" height="35.33" fill="#37107b"/><path d="M 212 459.33 A 35.33 35.33 0 0 0 247.32999999999998 494.65999999999997 L 247.32999999999998 485.8275 A 26.4975 26.4975 0 0 1 220.8325 459.33" fill="#3a1281"/><rect x="247.33" y="459.33" width="35.33" height="35.33" fill="#330f76"/><path d="M 247.33 494.65999999999997 A 35.33 35.33 0 0 0 282.66 459.33 L 273.8275 459.33 A 26.4975 26.4975 0 0 1 247.33 485.8275" fill="#38107d"/><rect x="282.6666666666667" y="424" width="70.66666666666667" height="70.66666666666667" fill="#38107c"/><rect x="282.67" y="424" width="35.33" height="35.33" fill="#3c1485"/><path d="M 282.67 424 A 35.33 35.33 0 0 1 318 459.33 L 282.67 459.33L282.67 424" fill="#38107d"/><rect x="318" y="424" width="35.33" height="35.33" fill="#37107b"/><path d="M 318 459.33 A 35.33 35.33 0 0 1  353.33 424 L 353.33 459.33L318 459.33" fill="#3b1382"/><rect x="282.67" y="459.33" width="35.33" height="35.33" fill="#3a1281"/><path d="M 282.67 494.65999999999997 A 35.33 35.33 0 0 0 318 459.33 L 282.67 459.33L282.67 494.65999999999997" fill="#37107a"/><rect x="318" y="459.33" width="35.33" height="35.33" fill="#3c1484"/><path d="M 318 459.33 A 35.33 35.33 0 0 0 353.33 494.65999999999997 L 353.33 459.33L318 459.33" fill="#39117f"/><rect x="353.33333333333337" y="424" width="70.66666666666667" height="70.66666666666667" fill="#38107c"/><rect x="353.33" y="424" width="35.33" height="35.33" fill="#340f77"/><polygon points="388.65999999999997,424 388.65999999999997,459.33 353.33,459.33" fill="#3b1383"/><rect x="388.67" y="424" width="35.33" height="35.33" fill="#38107b"/><polygon points="388.67,424 424,459.33 388.67,459.33" fill="#38107c"/><rect x="353.33" y="459.33" width="35.33" height="35.33" fill="#37107b"/><polygon points="353.33,459.33 388.65999999999997,459.33 353.33,494.65999999999997" fill="#37107a"/><rect x="388.67" y="459.33" width="35.33" height="35.33" fill="#340f77"/><polygon points="388.67,459.33 424,459.33 424,494.65999999999997" fill="#39117e"/><rect x="424" y="424" width="70.67" height="70.67" fill="#3b1383"/><path d="M 424 494.67 A 70.67 70.67 0 0 1  494.67 424 L 424 494.67 A 70.67 70.67 0 0 0 494.67 424" fill="#3b1383"/><rect x="494.67" y="424" width="70.67" height="70.67" fill="#340f77"/><rect x="494.67" y="424" width="70.67" height="70.67" fill="#350f79"/><rect x="565.3333333333334" y="424" width="70.66666666666667" height="70.66666666666667" fill="#38107c"/><rect x="565.33" y="424" width="35.33" height="35.33" fill="#350f78"/><path d="M 565.33 459.33 A 35.33 35.33 0 0 1 600.6600000000001 424 L 600.6600000000001 432.8325 A 26.4975 26.4975 0 0 0 574.1625 459.33" fill="#3b1383"/><rect x="600.67" y="424" width="35.33" height="35.33" fill="#39117f"/><path d="M 600.67 424 A 35.33 35.33 0 0 1 636 459.33 L 627.1674999999999 459.33 A 26.4975 26.4975 0 0 0 600.67 432.8325" fill="#350f79"/><rect x="565.33" y="459.33" width="35.33" height="35.33" fill="#36107a"/><path d="M 565.33 459.33 A 35.33 35.33 0 0 0 600.6600000000001 494.65999999999997 L 600.6600000000001 485.8275 A 26.4975 26.4975 0 0 1 574.1625 459.33" fill="#3b1383"/><rect x="600.67" y="459.33" width="35.33" height="35.33" fill="#38107c"/><path d="M 600.67 494.65999999999997 A 35.33 35.33 0 0 0 636 459.33 L 627.1674999999999 459.33 A 26.4975 26.4975 0 0 1 600.67 485.8275" fill="#3a1280"/><rect x="636" y="424" width="70.67" height="70.67" fill="#38107c"/><path d="M 636 494.67 A 70.67 70.67 0 0 1  706.67 424 L 706.67 494.67L636 494.67" fill="#36107a"/><rect x="706.67" y="424" width="70.67" height="70.67" fill="#3b1383"/><polygon points="706.67,424 777.3399999999999,424 706.67,494.67" fill="#350f78"/><rect x="777.33" y="424" width="70.67" height="70.67" fill="#36107a"/><rect x="777.33" y="424" width="70.67" height="70.67" fill="#36107a"/><rect x="848" y="424" width="70.66666666666667" height="70.66666666666667" fill="#38107c"/><rect x="848" y="424" width="35.33" height="35.33" fill="#3b1382"/><path d="M 848 459.33 A 35.33 35.33 0 0 1 883.33 424 L 883.33 432.8325 A 26.4975 26.4975 0 0 0 856.8325 459.33" fill="#350f78"/><rect x="883.33" y="424" width="35.33" height="35.33" fill="#3b1382"/><path d="M 883.33 424 A 35.33 35.33 0 0 1 918.6600000000001 459.33 L 909.8275 459.33 A 26.4975 26.4975 0 0 0 883.33 432.8325" fill="#3b1384"/><rect x="848" y="459.33" width="35.33" height="35.33" fill="#36107a"/><path d="M 848 459.33 A 35.33 35.33 0 0 0 883.33 494.65999999999997 L 883.33 485.8275 A 26.4975 26.4975 0 0 1 856.8325 459.33" fill="#3b1383"/><rect x="883.33" y="459.33" width="35.33" height="35.33" fill="#350f78"/><path d="M 883.33 494.65999999999997 A 35.33 35.33 0 0 0 918.6600000000001 459.33 L 909.8275 459.33 A 26.4975 26.4975 0 0 1 883.33 485.8275" fill="#3c1484"/><rect x="918.67" y="424" width="70.67" height="70.67" fill="#3b1382"/><path d="M 918.67 424 A 70.67 70.67 0 0 1 989.3399999999999 494.67 L 918.67 494.67L918.67 424" fill="#350f78"/><rect x="989.3333333333334" y="424" width="70.66666666666667" height="70.66666666666667" fill="#38107c"/><rect x="989.33" y="424" width="35.33" height="35.33" fill="#3b1383"/><path d="M 989.33 459.33 A 35.33 35.33 0 0 1 1024.66 424 L 1024.66 432.8325 A 26.4975 26.4975 0 0 0 998.1625 459.33" fill="#36107a"/><rect x="1024.67" y="424" width="35.33" height="35.33" fill="#37107b"/><path d="M 1024.67 424 A 35.33 35.33 0 0 1 1060 459.33 L 1051.1675 459.33 A 26.4975 26.4975 0 0 0 1024.67 432.8325" fill="#3a1280"/><rect x="989.33" y="459.33" width="35.33" height="35.33" fill="#3a1280"/><path d="M 989.33 459.33 A 35.33 35.33 0 0 0 1024.66 494.65999999999997 L 1024.66 485.8275 A 26.4975 26.4975 0 0 1 998.1625 459.33" fill="#3a1281"/><rect x="1024.67" y="459.33" width="35.33" height="35.33" fill="#340f77"/><path d="M 1024.67 494.65999999999997 A 35.33 35.33 0 0 0 1060 459.33 L 1051.1675 459.33 A 26.4975 26.4975 0 0 1 1024.67 485.8275" fill="#3a1280"/><rect x="1060" y="424" width="70.66666666666667" height="70.66666666666667" fill="#38107c"/><rect x="1060" y="424" width="35.33" height="35.33" fill="#3a1281"/><polygon points="1095.33,424 1095.33,459.33 1060,459.33" fill="#37107b"/><rect x="1095.33" y="424" width="35.33" height="35.33" fill="#340f77"/><polygon points="1095.33,424 1130.6599999999999,424 1095.33,459.33" fill="#3a1280"/><rect x="1060" y="459.33" width="35.33" height="35.33" fill="#3b1382"/><polygon points="1060,459.33 1095.33,459.33 1095.33,494.65999999999997" fill="#38107d"/><rect x="1095.33" y="459.33" width="35.33" height="35.33" fill="#37107b"/><polygon points="1095.33,459.33 1130.6599999999999,494.65999999999997 1095.33,494.65999999999997" fill="#36107a"/><rect x="0" y="494.67" width="70.67" height="70.67" fill="#38107d"/><path d="M 0 565.34 A 70.67 70.67 0 0 1  70.67 494.67 L 0 565.34 A 70.67 70.67 0 0 0 70.67 494.67" fill="#39117e"/><rect x="70.67" y="494.67" width="70.67" height="70.67" fill="#3b1383"/><rect x="70.67" y="494.67" width="70.67" height="70.67" fill="#38107c"/><rect x="141.33333333333334" y="494.6666666666667" width="70.66666666666667" height="70.66666666666667" fill="#38107c"/><rect x="141.33" y="494.67" width="35.33" height="35.33" fill="#37107b"/><polygon points="176.66000000000003,494.67 176.66000000000003,530 141.33,530" fill="#3b1382"/><rect x="176.67" y="494.67" width="35.33" height="35.33" fill="#39117d"/><polygon points="176.67,494.67 212,494.67 176.67,530" fill="#350f78"/><rect x="141.33" y="530" width="35.33" height="35.33" fill="#38107d"/><polygon points="141.33,530 176.66000000000003,530 176.66000000000003,565.33" fill="#3a1281"/><rect x="176.67" y="530" width="35.33" height="35.33" fill="#39117e"/><polygon points="176.67,530 212,565.33 176.67,565.33" fill="#340f77"/><rect x="212" y="494.6666666666667" width="70.66666666666667" height="70.66666666666667" fill="#38107c"/><rect x="212" y="494.67" width="35.33" height="35.33" fill="#350f78"/><path d="M 212 530 A 35.33 35.33 0 0 0 247.32999999999998 494.67 L 212 494.67L212 530" fill="#39117d"/><rect x="247.33" y="494.67" width="35.33" height="35.33" fill="#340f77"/><path d="M 247.33 494.67 A 35.33 35.33 0 0 0 282.66 530 L 282.66 494.67L247.33 494.67" fill="#37107b"/><rect x="212" y="530" width="35.33" height="35.33" fill="#38107c"/><path d="M 212 530 A 35.33 35.33 0 0 1 247.32999999999998 565.33 L 212 565.33L212 530" fill="#340f78"/><rect x="247.33" y="530" width="35.33" height="35.33" fill="#39117e"/><path d="M 247.33 565.33 A 35.33 35.33 0 0 1  282.66 530 L 282.66 565.33L247.33 565.33" fill="#330f76"/><rect x="282.67" y="494.67" width="70.67" height="70.67" fill="#3b1383"/><path d="M 282.67 565.34 A 70.67 70.67 0 0 1  353.34000000000003 494.67 L 282.67 565.34 A 70.67 70.67 0 0 0 353.34000000000003 494.67" fill="#38107c"/><rect x="353.33" y="494.67" width="70.67" height="70.67" fill="#37107b"/><rect x="353.33" y="494.67" width="70.67" height="70.67" fill="#37107b"/><rect x="424" y="494.67" width="70.67" height="70.67" fill="#340f77"/><path d="M 424 494.67 A 70.67 70.67 0 0 0 494.67 565.34 L 494.67 494.67L424 494.67" fill="#361079"/><rect x="494.6666666666667" y="494.6666666666667" width="70.66666666666667" height="70.66666666666667" fill="#38107c"/><rect x="494.67" y="494.67" width="35.33" height="35.33" fill="#36107a"/><path d="M 494.67 530 A 35.33 35.33 0 0 0 530 494.67 L 494.67 494.67L494.67 530" fill="#3b1383"/><rect x="530" y="494.67" width="35.33" height="35.33" fill="#37107b"/><path d="M 530 494.67 A 35.33 35.33 0 0 0 565.33 530 L 565.33 494.67L530 494.67" fill="#340f77"/><rect x="494.67" y="530" width="35.33" height="35.33" fill="#3c1484"/><path d="M 494.67 530 A 35.33 35.33 0 0 1 530 565.33 L 494.67 565.33L494.67 530" fill="#350f78"/><rect x="530" y="530" width="35.33" height="35.33" fill="#3c1485"/><path d="M 530 565.33 A 35.33 35.33 0 0 1  565.33 530 L 565.33 565.33L530 565.33" fill="#3c1485"/><rect x="565.33" y="494.67" width="70.67" height="70.67" fill="#3b1383"/><polygon points="636,494.67 636,565.34 565.33,565.34" fill="#361079"/><rect x="636" y="494.6666666666667" width="70.66666666666667" height="70.66666666666667" fill="#38107c"/><rect x="636" y="494.67" width="35.33" height="35.33" fill="#38107d"/><path d="M 636 530 A 35.33 35.33 0 0 1 671.33 494.67 L 671.33 503.5025 A 26.4975 26.4975 0 0 0 644.8325 530" fill="#3b1382"/><rect x="671.33" y="494.67" width="35.33" height="35.33" fill="#38107b"/><path d="M 671.33 494.67 A 35.33 35.33 0 0 1 706.6600000000001 530 L 697.8275 530 A 26.4975 26.4975 0 0 0 671.33 503.5025" fill="#330f76"/><rect x="636" y="530" width="35.33" height="35.33" fill="#330f76"/><path d="M 636 530 A 35.33 35.33 0 0 0 671.33 565.33 L 671.33 556.4975 A 26.4975 26.4975 0 0 1 644.8325 530" fill="#39117d"/><rect x="671.33" y="530" width="35.33" height="35.33" fill="#3a1280"/><path d="M 671.33 565.33 A 35.33 35.33 0 0 0 706.6600000000001 530 L 697.8275 530 A 26.4975 26.4975 0 0 1 671.33 556.4975" fill="#39117e"/><rect x="706.6666666666667" y="494.6666666666667" width="70.66666666666667" height="70.66666666666667" fill="#38107c"/><rect x="706.67" y="494.67" width="35.33" height="35.33" fill="#340f77"/><path d="M 706.67 494.67 A 35.33 35.33 0 0 1 742 530 L 706.67 530L706.67 494.67" fill="#3b1383"/><rect x="742" y="494.67" width="35.33" height="35.33" fill="#39117e"/><path d="M 742 530 A 35.33 35.33 0 0 1  777.33 494.67 L 777.33 530L742 530" fill="#330f76"/><rect x="706.67" y="530" width="35.33" height="35.33" fill="#37107b"/><path d="M 706.67 565.33 A 35.33 35.33 0 0 0 742 530 L 706.67 530L706.67 565.33" fill="#350f78"/><rect x="742" y="530" width="35.33" height="35.33" fill="#3b1383"/><path d="M 742 530 A 35.33 35.33 0 0 0 777.33 565.33 L 777.33 530L742 530" fill="#3c1484"/><rect x="777.3333333333334" y="494.6666666666667" width="70.66666666666667" height="70.66666666666667" fill="#38107c"/><rect x="777.33" y="494.67" width="35.33" height="35.33" fill="#3a127f"/><path d="M 777.33 530 A 35.33 35.33 0 0 1 812.6600000000001 494.67 L 812.6600000000001 503.5025 A 26.4975 26.4975 0 0 0 786.1625 530" fill="#361079"/><rect x="812.67" y="494.67" width="35.33" height="35.33" fill="#350f78"/><path d="M 812.67 494.67 A 35.33 35.33 0 0 1 848 530 L 839.1674999999999 530 A 26.4975 26.4975 0 0 0 812.67 503.5025" fill="#3a1280"/><rect x="777.33" y="530" width="35.33" height="35.33" fill="#340f77"/><path d="M 777.33 530 A 35.33 35.33 0 0 0 812.6600000000001 565.33 L 812.6600000000001 556.4975 A 26.4975 26.4975 0 0 1 786.1625 530" fill="#38107b"/><rect x="812.67" y="530" width="35.33" height="35.33" fill="#38107d"/><path d="M 812.67 565.33 A 35.33 35.33 0 0 0 848 530 L 839.1674999999999 530 A 26.4975 26.4975 0 0 1 812.67 556.4975" fill="#37107b"/><rect x="848" y="494.6666666666667" width="70.66666666666667" height="70.66666666666667" fill="#38107c"/><rect x="848" y="494.67" width="35.33" height="35.33" fill="#37107b"/><polygon points="883.33,494.67 883.33,530 848,530" fill="#37107b"/><rect x="883.33" y="494.67" width="35.33" height="35.33" fill="#340f78"/><polygon points="883.33,494.67 918.6600000000001,494.67 883.33,530" fill="#3b1383"/><rect x="848" y="530" width="35.33" height="35.33" fill="#39117d"/><polygon points="848,530 883.33,530 883.33,565.33" fill="#39117f"/><rect x="883.33" y="530" width="35.33" height="35.33" fill="#330f76"/><polygon points="883.33,530 918.6600000000001,565.33 883.33,565.33" fill="#39117e"/><rect x="918.67" y="494.67" width="70.67" height="70.67" fill="#37107b"/><path d="M 918.67 565.34 A 70.67 70.67 0 0 1  989.3399999999999 494.67 L 918.67 565.34 A 70.67 70.67 0 0 0 989.3399999999999 494.67" fill="#39117f"/><rect x="989.3333333333334" y="494.6666666666667" width="70.66666666666667" height="70.66666666666667" fill="#38107c"/><rect x="989.33" y="494.67" width="35.33" height="35.33" fill="#3a1281"/><path d="M 989.33 530 A 35.33 35.33 0 0 1  1024.66 494.67 L 1024.66 530L989.33 530" fill="#3a1281"/><rect x="1024.67" y="494.67" width="35.33" height="35.33" fill="#3b1383"/><path d="M 1024.67 494.67 A 35.33 35.33 0 0 1 1060 530 L 1024.67 530L1024.67 494.67" fill="#3a1280"/><rect x="989.33" y="530" width="35.33" height="35.33" fill="#38107c"/><path d="M 989.33 530 A 35.33 35.33 0 0 0 1024.66 565.33 L 1024.66 530L989.33 530" fill="#3a1282"/><rect x="1024.67" y="530" width="35.33" height="35.33" fill="#3b1382"/><path d="M 1024.67 565.33 A 35.33 35.33 0 0 0 1060 530 L 1024.67 530L1024.67 565.33" fill="#37107b"/><rect x="1060" y="494.67" width="70.67" height="70.67" fill="#350f78"/><rect x="1060" y="494.67" width="70.67" height="70.67" fill="#37107b"/><rect x="0" y="565.3333333333334" width="70.66666666666667" height="70.66666666666667" fill="#38107c"/><rect x="0" y="565.33" width="35.33" height="35.33" fill="#330f76"/><polygon points="35.33,565.33 35.33,600.6600000000001 0,600.6600000000001" fill="#39117f"/><rect x="35.33" y="565.33" width="35.33" height="35.33" fill="#330f76"/><polygon points="35.33,565.33 70.66,600.6600000000001 35.33,600.6600000000001" fill="#3b1382"/><rect x="0" y="600.67" width="35.33" height="35.33" fill="#3b1382"/><polygon points="0,600.67 35.33,600.67 0,636" fill="#3a1280"/><rect x="35.33" y="600.67" width="35.33" height="35.33" fill="#340f77"/><polygon points="35.33,600.67 70.66,600.67 70.66,636" fill="#340f77"/><rect x="70.67" y="565.33" width="70.67" height="70.67" fill="#37107b"/><polygon points="70.67,565.33 141.34,565.33 141.34,636" fill="#3a1280"/><rect x="141.33333333333334" y="565.3333333333334" width="70.66666666666667" height="70.66666666666667" fill="#38107c"/><rect x="141.33" y="565.33" width="35.33" height="35.33" fill="#38107c"/><circle cx="158.995" cy="582.995" r="17.665" fill="#361079"/><rect x="176.67" y="565.33" width="35.33" height="35.33" fill="#37107b"/><rect x="176.67" y="565.33" width="35.33" height="35.33" fill="#3b1382"/><rect x="141.33" y="600.67" width="35.33" height="35.33" fill="#36107a"/><circle cx="158.995" cy="618.3349999999999" r="17.665" fill="#38107b"/><rect x="176.67" y="600.67" width="35.33" height="35.33" fill="#37107b"/><rect x="176.67" y="600.67" width="35.33" height="35.33" fill="#350f79"/><rect x="212" y="565.33" width="70.67" height="70.67" fill="#3a1281"/><rect x="212" y="565.33" width="70.67" height="70.67" fill="#37107b"/><rect x="282.67" y="565.33" width="70.67" height="70.67" fill="#340f78"/><path d="M 282.67 636 A 70.67 70.67 0 0 1  353.34000000000003 565.33 L 353.34000000000003 636L282.67 636" fill="#3c1485"/><rect x="353.33" y="565.33" width="70.67" height="70.67" fill="#3a1281"/><rect x="353.33" y="565.33" width="70.67" height="70.67" fill="#350f79"/><rect x="424" y="565.33" width="70.67" height="70.67" fill="#350f79"/><rect x="424" y="565.33" width="70.67" height="70.67" fill="#38107c"/><rect x="494.6666666666667" y="565.3333333333334" width="70.66666666666667" height="70.66666666666667" fill="#38107c"/><rect x="494.67" y="565.33" width="35.33" height="35.33" fill="#37107b"/><polygon points="530,565.33 530,600.6600000000001 494.67,600.6600000000001" fill="#38107d"/><rect x="530" y="565.33" width="35.33" height="35.33" fill="#36107a"/><polygon points="530,565.33 565.33,600.6600000000001 530,600.6600000000001" fill="#38107d"/><rect x="494.67" y="600.67" width="35.33" height="35.33" fill="#340f77"/><polygon points="494.67,600.67 530,600.67 494.67,636" fill="#39117e"/><rect x="530" y="600.67" width="35.33" height="35.33" fill="#350f78"/><polygon points="530,600.67 565.33,600.67 565.33,636" fill="#39117e"/><rect x="565.33" y="565.33" width="70.67" height="70.67" fill="#3b1383"/><rect x="565.33" y="565.33" width="70.67" height="70.67" fill="#340f78"/><rect x="636" y="565.3333333333334" width="70.66666666666667" height="70.66666666666667" fill="#38107c"/><rect x="636" y="565.33" width="35.33" height="35.33" fill="#3b1383"/><polygon points="671.33,565.33 671.33,600.6600000000001 636,600.6600000000001" fill="#350f79"/><rect x="671.33" y="565.33" width="35.33" height="35.33" fill="#37107b"/><polygon points="671.33,565.33 706.6600000000001,600.6600000000001 671.33,600.6600000000001" fill="#3a1282"/><rect x="636" y="600.67" width="35.33" height="35.33" fill="#38107c"/><polygon points="636,600.67 671.33,600.67 636,636" fill="#39117f"/><rect x="671.33" y="600.67" width="35.33" height="35.33" fill="#37107a"/><polygon points="671.33,600.67 706.6600000000001,600.67 706.6600000000001,636" fill="#37107a"/><rect x="706.6666666666667" y="565.3333333333334" width="70.66666666666667" height="70.66666666666667" fill="#38107c"/><rect x="706.67" y="565.33" width="35.33" height="35.33" fill="#350f78"/><path d="M 706.67 600.6600000000001 A 35.33 35.33 0 0 1  742 565.33 L 742 600.6600000000001L706.67 600.6600000000001" fill="#340f78"/><rect x="742" y="565.33" width="35.33" height="35.33" fill="#3c1484"/><path d="M 742 565.33 A 35.33 35.33 0 0 1 777.33 600.6600000000001 L 742 600.6600000000001L742 565.33" fill="#38107d"/><rect x="706.67" y="600.67" width="35.33" height="35.33" fill="#38107d"/><path d="M 706.67 600.67 A 35.33 35.33 0 0 0 742 636 L 742 600.67L706.67 600.67" fill="#38107c"/><rect x="742" y="600.67" width="35.33" height="35.33" fill="#3a1281"/><path d="M 742 636 A 35.33 35.33 0 0 0 777.33 600.67 L 742 600.67L742 636" fill="#340f77"/><rect x="777.33" y="565.33" width="70.67" height="70.67" fill="#3a1281"/><path d="M 777.33 636 A 70.67 70.67 0 0 1  848 565.33 L 777.33 636 A 70.67 70.67 0 0 0 848 565.33" fill="#3a1280"/><rect x="848" y="565.3333333333334" width="70.66666666666667" height="70.66666666666667" fill="#38107c"/><rect x="848" y="565.33" width="35.33" height="35.33" fill="#37107a"/><polygon points="883.33,565.33 883.33,600.6600000000001 848,600.6600000000001" fill="#3a1280"/><rect x="883.33" y="565.33" width="35.33" height="35.33" fill="#350f78"/><polygon points="883.33,565.33 918.6600000000001,565.33 883.33,600.6600000000001" fill="#3c1484"/><rect x="848" y="600.67" width="35.33" height="35.33" fill="#3a1281"/><polygon points="848,600.67 883.33,600.67 883.33,636" fill="#38107c"/><rect x="883.33" y="600.67" width="35.33" height="35.33" fill="#350f78"/><polygon points="883.33,600.67 918.6600000000001,636 883.33,636" fill="#3a1281"/><rect x="918.6666666666667" y="565.3333333333334" width="70.66666666666667" height="70.66666666666667" fill="#38107c"/><rect x="918.67" y="565.33" width="35.33" height="35.33" fill="#37107b"/><polygon points="954,565.33 954,600.6600000000001 918.67,600.6600000000001" fill="#37107a"/><rect x="954" y="565.33" width="35.33" height="35.33" fill="#38107c"/><polygon points="954,565.33 989.33,565.33 954,600.6600000000001" fill="#37107b"/><rect x="918.67" y="600.67" width="35.33" height="35.33" fill="#350f79"/><polygon points="918.67,600.67 954,600.67 954,636" fill="#340f77"/><rect x="954" y="600.67" width="35.33" height="35.33" fill="#340f77"/><polygon points="954,600.67 989.33,636 954,636" fill="#330f76"/><rect x="989.3333333333334" y="565.3333333333334" width="70.66666666666667" height="70.66666666666667" fill="#38107c"/><rect x="989.33" y="565.33" width="35.33" height="35.33" fill="#350f79"/><path d="M 989.33 600.6600000000001 A 35.33 35.33 0 0 1 1024.66 565.33 L 1024.66 574.1625 A 26.4975 26.4975 0 0 0 998.1625 600.6600000000001" fill="#3c1485"/><rect x="1024.67" y="565.33" width="35.33" height="35.33" fill="#3a1281"/><path d="M 1024.67 565.33 A 35.33 35.33 0 0 1 1060 600.6600000000001 L 1051.1675 600.6600000000001 A 26.4975 26.4975 0 0 0 1024.67 574.1625" fill="#340f78"/><rect x="989.33" y="600.67" width="35.33" height="35.33" fill="#340f77"/><path d="M 989.33 600.67 A 35.33 35.33 0 0 0 1024.66 636 L 1024.66 627.1674999999999 A 26.4975 26.4975 0 0 1 998.1625 600.67" fill="#3c1484"/><rect x="1024.67" y="600.67" width="35.33" height="35.33" fill="#38107c"/><path d="M 1024.67 636 A 35.33 35.33 0 0 0 1060 600.67 L 1051.1675 600.67 A 26.4975 26.4975 0 0 1 1024.67 627.1674999999999" fill="#340f77"/><rect x="1060" y="565.3333333333334" width="70.66666666666667" height="70.66666666666667" fill="#38107c"/><rect x="1060" y="565.33" width="35.33" height="35.33" fill="#350f78"/><path d="M 1060 565.33 A 35.33 35.33 0 0 0 1095.33 600.6600000000001 L 1095.33 565.33L1060 565.33" fill="#37107b"/><rect x="1095.33" y="565.33" width="35.33" height="35.33" fill="#3c1484"/><path d="M 1095.33 600.6600000000001 A 35.33 35.33 0 0 0 1130.6599999999999 565.33 L 1095.33 565.33L1095.33 600.6600000000001" fill="#340f78"/><rect x="1060" y="600.67" width="35.33" height="35.33" fill="#3c1484"/><path d="M 1060 636 A 35.33 35.33 0 0 1  1095.33 600.67 L 1095.33 636L1060 636" fill="#350f79"/><rect x="1095.33" y="600.67" width="35.33" height="35.33" fill="#39117e"/><path d="M 1095.33 600.67 A 35.33 35.33 0 0 1 1130.6599999999999 636 L 1095.33 636L1095.33 600.67" fill="#330f76"/></g></svg>