<?xml version="1.0" standalone="no"?><svg xmlns:xlink="http://www.w3.org/1999/xlink" xmlns="http://www.w3.org/2000/svg" viewBox="0 0 400 400" preserveAspectRatio="xMaxYMax slice"><g transform="scale(0.6289308176100629)"><rect x="0" y="0" width="636" height="636" fill="#ffffff"/><rect x="0" y="0" width="70.66666666666667" height="70.66666666666667" fill="#ffffff"/><path d="M 0 0 A 35.33 35.33 0 0 1  35.33 35.33 L 0 0 A 35.33 35.33 0 0 0 35.33 35.33" fill="#ead8f1"/><path d="M 35.33 35.33 A 35.33 35.33 0 0 1  70.66 0 L 35.33 35.33 A 35.33 35.33 0 0 0 70.66 0" fill="#ac65c6"/><path d="M 0 70.66 A 35.33 35.33 0 0 1  35.33 35.33 L 0 70.66 A 35.33 35.33 0 0 0 35.33 35.33" fill="#562d98"/><path d="M 35.33 35.33 A 35.33 35.33 0 0 1  70.66 70.66 L 35.33 35.33 A 35.33 35.33 0 0 0 70.66 70.66" fill="#f1e5f5"/><rect x="70.66666666666667" y="0" width="70.66666666666667" height="70.66666666666667" fill="#ffffff"/><path d="M 70.67 0 A 35.33 35.33 0 0 1  106 35.33 L 70.67 0 A 35.33 35.33 0 0 0 106 35.33" fill="#e3ccec"/><rect x="141.33333333333334" y="0" width="70.66666666666667" height="70.66666666666667" fill="#ffffff"/><rect x="212" y="0" width="70.66666666666667" height="70.66666666666667" fill="#ffffff"/><path d="M 212 70.66 A 35.33 35.33 0 0 1  247.32999999999998 35.33 L 212 70.66 A 35.33 35.33 0 0 0 247.32999999999998 35.33" fill="#a14fbd"/><rect x="282.6666666666667" y="0" width="70.66666666666667" height="70.66666666666667" fill="#ffffff"/><path d="M 353.33 0 A 70.67 70.67 0 0 1  424 70.67 L 353.33 0 A 70.67 70.67 0 0 0 424 70.67" fill="#b06cc8"/><rect x="565.3333333333334" y="0" width="70.66666666666667" height="70.66666666666667" fill="#ffffff"/><path d="M 565.33 35.33 A 35.33 35.33 0 0 1  600.6600000000001 0 L 565.33 35.33 A 35.33 35.33 0 0 0 600.6600000000001 0" fill="#876ab6"/><path d="M 565.33 70.66 A 35.33 35.33 0 0 1  600.6600000000001 35.33 L 565.33 70.66 A 35.33 35.33 0 0 0 600.6600000000001 35.33" fill="#9f4dbd"/><path d="M 353.33 70.67 A 70.67 70.67 0 0 1  424 141.34 L 353.33 70.67 A 70.67 70.67 0 0 0 424 141.34" fill="#9a43b9"/><path d="M 424 70.67 A 70.67 70.67 0 0 1  494.67 141.34 L 424 70.67 A 70.67 70.67 0 0 0 494.67 141.34" fill="#c28dd5"/><rect x="0" y="141.33333333333334" width="70.66666666666667" height="70.66666666666667" fill="#ffffff"/><path d="M 35.33 176.66000000000003 A 35.33 35.33 0 0 1  70.66 141.33 L 35.33 176.66000000000003 A 35.33 35.33 0 0 0 70.66 141.33" fill="#6641a2"/><path d="M 212 212 A 70.67 70.67 0 0 1  282.67 141.33 L 212 212 A 70.67 70.67 0 0 0 282.67 141.33" fill="#dbbbe6"/><rect x="353.33333333333337" y="141.33333333333334" width="70.66666666666667" height="70.66666666666667" fill="#ffffff"/><path d="M 388.67 141.33 A 35.33 35.33 0 0 1  424 176.66000000000003 L 388.67 141.33 A 35.33 35.33 0 0 0 424 176.66000000000003" fill="#f3f0f8"/><path d="M 388.67 212 A 35.33 35.33 0 0 1  424 176.67 L 388.67 212 A 35.33 35.33 0 0 0 424 176.67" fill="#8467b5"/><rect x="424" y="141.33333333333334" width="70.66666666666667" height="70.66666666666667" fill="#ffffff"/><path d="M 459.33 141.33 A 35.33 35.33 0 0 1  494.65999999999997 176.66000000000003 L 459.33 141.33 A 35.33 35.33 0 0 0 494.65999999999997 176.66000000000003" fill="#9c48bb"/><rect x="141.33333333333334" y="212" width="70.66666666666667" height="70.66666666666667" fill="#ffffff"/><path d="M 176.67 247.32999999999998 A 35.33 35.33 0 0 1  212 212 L 176.67 247.32999999999998 A 35.33 35.33 0 0 0 212 212" fill="#fdfcfe"/><path d="M 565.33 212 A 70.67 70.67 0 0 1  636 282.67 L 565.33 212 A 70.67 70.67 0 0 0 636 282.67" fill="#aa61c4"/><rect x="0" y="353.33333333333337" width="70.66666666666667" height="70.66666666666667" fill="#ffffff"/><path d="M 0 424 A 35.33 35.33 0 0 1  35.33 388.67 L 0 424 A 35.33 35.33 0 0 0 35.33 388.67" fill="#c390d6"/><rect x="70.66666666666667" y="353.33333333333337" width="70.66666666666667" height="70.66666666666667" fill="#ffffff"/><path d="M 70.67 353.33 A 35.33 35.33 0 0 1  106 388.65999999999997 L 70.67 353.33 A 35.33 35.33 0 0 0 106 388.65999999999997" fill="#4a1e91"/><rect x="424" y="353.33333333333337" width="70.66666666666667" height="70.66666666666667" fill="#ffffff"/><path d="M 459.33 388.65999999999997 A 35.33 35.33 0 0 1  494.65999999999997 353.33 L 459.33 388.65999999999997 A 35.33 35.33 0 0 0 494.65999999999997 353.33" fill="#b9a8d4"/><path d="M 565.33 424 A 70.67 70.67 0 0 1  636 353.33 L 565.33 424 A 70.67 70.67 0 0 0 636 353.33" fill="#f5ecf8"/><rect x="353.33333333333337" y="424" width="70.66666666666667" height="70.66666666666667" fill="#ffffff"/><path d="M 388.67 424 A 35.33 35.33 0 0 1  424 459.33 L 388.67 424 A 35.33 35.33 0 0 0 424 459.33" fill="#b26fc9"/><rect x="494.6666666666667" y="424" width="70.66666666666667" height="70.66666666666667" fill="#ffffff"/><path d="M 530 459.33 A 35.33 35.33 0 0 1  565.33 424 L 530 459.33 A 35.33 35.33 0 0 0 565.33 424" fill="#e1c7ea"/><path d="M 565.33 424 A 70.67 70.67 0 0 1  636 494.67 L 565.33 424 A 70.67 70.67 0 0 0 636 494.67" fill="#f2e7f6"/><path d="M 212 494.67 A 70.67 70.67 0 0 1  282.67 565.34 L 212 494.67 A 70.67 70.67 0 0 0 282.67 565.34" fill="#d3ace0"/><rect x="353.33333333333337" y="494.6666666666667" width="70.66666666666667" height="70.66666666666667" fill="#ffffff"/><rect x="494.6666666666667" y="494.6666666666667" width="70.66666666666667" height="70.66666666666667" fill="#ffffff"/><path d="M 530 565.33 A 35.33 35.33 0 0 1  565.33 530 L 530 565.33 A 35.33 35.33 0 0 0 565.33 530" fill="#cbbedf"/><rect x="70.66666666666667" y="565.3333333333334" width="70.66666666666667" height="70.66666666666667" fill="#ffffff"/><path d="M 141.33 636 A 70.67 70.67 0 0 1  212 565.33 L 141.33 636 A 70.67 70.67 0 0 0 212 565.33" fill="#eee0f3"/><rect x="212" y="565.3333333333334" width="70.66666666666667" height="70.66666666666667" fill="#ffffff"/><path d="M 247.33 636 A 35.33 35.33 0 0 1  282.66 600.67 L 247.33 636 A 35.33 35.33 0 0 0 282.66 600.67" fill="#a38dc7"/><path d="M 353.33 636 A 70.67 70.67 0 0 1  424 565.33 L 353.33 636 A 70.67 70.67 0 0 0 424 565.33" fill="#cdc1e1"/><rect x="565.3333333333334" y="565.3333333333334" width="70.66666666666667" height="70.66666666666667" fill="#ffffff"/><path d="M 600.67 600.67 A 35.33 35.33 0 0 1  636 636 L 600.67 600.67 A 35.33 35.33 0 0 0 636 636" fill="#c593d7"/></g></svg>